<svg width="14" height="9" viewBox="0 0 14 9" fill="none" xmlns="http://www.w3.org/2000/svg">
<path d="M14 1.00006C14.0007 1.13223 13.9754 1.26325 13.9254 1.38561C13.8755 1.50796 13.8018 1.61925 13.7087 1.71309L7.68313 7.73871C7.49496 7.92576 7.24043 8.03075 6.97511 8.03075C6.7098 8.03075 6.45527 7.92576 6.2671 7.73871L0.241484 1.71309C0.0769579 1.52097 -0.0090137 1.27385 0.000748966 1.0211C0.0105116 0.768345 0.115289 0.528587 0.294144 0.349732C0.472999 0.170877 0.712758 0.0660987 0.965509 0.0563359C1.21826 0.0465732 1.46539 0.132545 1.6575 0.297071L6.97009 5.60966L12.2827 0.297071C12.4225 0.15605 12.6011 0.059669 12.7957 0.0201159C12.9904 -0.0194378 13.1924 -0.000387192 13.3762 0.0748587C13.56 0.150104 13.7174 0.278165 13.8284 0.442849C13.9394 0.607533 13.9992 0.801443 14 1.00006Z" fill="white"/>
</svg>
