<svg width="36" height="36" viewBox="0 0 36 36" fill="none" xmlns="http://www.w3.org/2000/svg">
<rect width="36" height="36" rx="18" fill="#14A4E9"/>
<path d="M22.4997 9H13.4999C11.0252 9 9 11.0252 9 13.4999V22.5001C9 24.9742 11.0252 27 13.4999 27H22.4997C24.9744 27 26.9996 24.9742 26.9996 22.5001V13.4999C26.9996 11.0252 24.9744 9 22.4997 9ZM25.4995 22.5001C25.4995 24.1538 24.1543 25.5 22.4997 25.5H13.4999C11.846 25.5 10.5 24.1538 10.5 22.5001V13.4999C10.5 11.8457 11.846 10.5 13.4999 10.5H22.4997C24.1543 10.5 25.4995 11.8457 25.4995 13.4999V22.5001Z" fill="white"/>
<path d="M22.875 14.2499C23.4963 14.2499 23.9999 13.7463 23.9999 13.125C23.9999 12.5037 23.4963 12 22.875 12C22.2537 12 21.75 12.5037 21.75 13.125C21.75 13.7463 22.2537 14.2499 22.875 14.2499Z" fill="white"/>
<path d="M17.9999 13.5C15.5141 13.5 13.5 15.5144 13.5 17.9999C13.5 20.4845 15.5141 22.5002 17.9999 22.5002C20.4849 22.5002 22.4998 20.4845 22.4998 17.9999C22.4998 15.5144 20.4849 13.5 17.9999 13.5ZM17.9999 21.0002C16.3432 21.0002 15 19.657 15 17.9999C15 16.3428 16.3432 15 17.9999 15C19.6565 15 20.9997 16.3428 20.9997 17.9999C20.9997 19.657 19.6565 21.0002 17.9999 21.0002Z" fill="white"/>
</svg>
